<?xml version="1.0" encoding="UTF-8"?>
<svg width="700pt" height="700pt" version="1.1" viewBox="0 0 700 700" xmlns="http://www.w3.org/2000/svg" xmlns:xlink="http://www.w3.org/1999/xlink">
 <defs>
  <symbol id="m" overflow="visible">
   <path d="m29.312-1.75c-1.5117 0.78125-3.0898 1.3711-4.7344 1.7656-1.6367 0.40625-3.3398 0.60938-5.1094 0.60938-5.3125 0-9.5273-1.4844-12.641-4.4531-3.1055-2.9688-4.6562-7-4.6562-12.094s1.5508-9.125 4.6562-12.094c3.1133-2.9688 7.3281-4.4531 12.641-4.4531 1.7695 0 3.4727 0.19922 5.1094 0.59375 1.6445 0.39844 3.2227 0.99219 4.7344 1.7812v6.5938c-1.5312-1.0391-3.0391-1.8008-4.5156-2.2812-1.4805-0.48828-3.0391-0.73438-4.6719-0.73438-2.9375 0-5.2461 0.94531-6.9219 2.8281-1.6797 1.875-2.5156 4.4648-2.5156 7.7656 0 3.293 0.83594 5.8828 2.5156 7.7656 1.6758 1.875 3.9844 2.8125 6.9219 2.8125 1.6328 0 3.1914-0.23828 4.6719-0.71875 1.4766-0.48828 2.9844-1.2539 4.5156-2.2969z"/>
  </symbol>
  <symbol id="k" overflow="visible">
   <path d="m21.453-17.406c-0.67969-0.3125-1.3516-0.53906-2.0156-0.6875-0.65625-0.15625-1.3203-0.23438-1.9844-0.23438-1.9688 0-3.4844 0.63281-4.5469 1.8906-1.0547 1.2617-1.5781 3.0703-1.5781 5.4219v11.016h-7.6562v-23.922h7.6562v3.9219c0.97656-1.5625 2.1016-2.7031 3.375-3.4219 1.2812-0.71875 2.8125-1.0781 4.5938-1.0781 0.25 0 0.52344 0.011719 0.82812 0.03125 0.30078 0.023438 0.73438 0.070312 1.2969 0.14062z"/>
  </symbol>
  <symbol id="c" overflow="visible">
   <path d="m27.562-12.031v2.1875h-17.891c0.1875 1.793 0.83203 3.1367 1.9375 4.0312 1.1133 0.89844 2.6719 1.3438 4.6719 1.3438 1.6016 0 3.25-0.23438 4.9375-0.70312 1.6875-0.47656 3.4219-1.2031 5.2031-2.1719v5.8906c-1.8047 0.6875-3.6094 1.2031-5.4219 1.5469-1.8125 0.35156-3.6211 0.53125-5.4219 0.53125-4.3359 0-7.7031-1.0977-10.109-3.2969-2.3984-2.207-3.5938-5.2969-3.5938-9.2656 0-3.9062 1.1758-6.9727 3.5312-9.2031 2.3633-2.2383 5.6094-3.3594 9.7344-3.3594 3.7578 0 6.7695 1.1367 9.0312 3.4062 2.2578 2.2617 3.3906 5.2812 3.3906 9.0625zm-7.8594-2.5312c0-1.457-0.42969-2.6289-1.2812-3.5156-0.84375-0.89453-1.9492-1.3438-3.3125-1.3438-1.4922 0-2.6992 0.41797-3.625 1.25-0.91797 0.83594-1.4922 2.0391-1.7188 3.6094z"/>
  </symbol>
  <symbol id="a" overflow="visible">
   <path d="m14.391-10.766c-1.5938 0-2.793 0.27344-3.5938 0.8125-0.80469 0.54297-1.2031 1.3398-1.2031 2.3906 0 0.96875 0.32031 1.7305 0.96875 2.2812 0.64453 0.54297 1.5469 0.8125 2.7031 0.8125 1.4375 0 2.6445-0.51562 3.625-1.5469 0.98828-1.0312 1.4844-2.3203 1.4844-3.875v-0.875zm11.688-2.8906v13.656h-7.7031v-3.5469c-1.0312 1.4492-2.1875 2.5078-3.4688 3.1719s-2.8398 1-4.6719 1c-2.4805 0-4.4961-0.72266-6.0469-2.1719-1.543-1.4453-2.3125-3.3203-2.3125-5.625 0-2.8125 0.96094-4.8672 2.8906-6.1719 1.9375-1.3125 4.9688-1.9688 9.0938-1.9688h4.5156v-0.60938c0-1.207-0.48047-2.0938-1.4375-2.6562-0.94922-0.5625-2.4375-0.84375-4.4688-0.84375-1.6367 0-3.1562 0.16797-4.5625 0.5-1.4062 0.32422-2.7188 0.8125-3.9375 1.4688v-5.8281c1.6445-0.40625 3.2891-0.70703 4.9375-0.90625 1.6562-0.20703 3.3047-0.3125 4.9531-0.3125 4.3203 0 7.4375 0.85547 9.3438 2.5625 1.9141 1.6992 2.875 4.4609 2.875 8.2812z"/>
  </symbol>
  <symbol id="b" overflow="visible">
   <path d="m12.031-30.719v6.7969h7.875v5.4688h-7.875v10.141c0 1.1172 0.21875 1.8711 0.65625 2.2656 0.4375 0.38672 1.3125 0.57812 2.625 0.57812h3.9375v5.4688h-6.5625c-3.0234 0-5.1641-0.62891-6.4219-1.8906-1.2617-1.2578-1.8906-3.3984-1.8906-6.4219v-10.141h-3.7969v-5.4688h3.7969v-6.7969z"/>
  </symbol>
  <symbol id="j" overflow="visible">
   <path d="m19.953-20.422v-12.812h7.6875v33.234h-7.6875v-3.4531c-1.0547 1.4062-2.2148 2.4375-3.4844 3.0938-1.2734 0.65625-2.7422 0.98438-4.4062 0.98438-2.9492 0-5.3711-1.1719-7.2656-3.5156-1.8867-2.3438-2.8281-5.3594-2.8281-9.0469s0.94141-6.7031 2.8281-9.0469c1.8945-2.3438 4.3164-3.5156 7.2656-3.5156 1.6562 0 3.1172 0.33594 4.3906 1 1.2812 0.65625 2.4453 1.6836 3.5 3.0781zm-5.0469 15.484c1.6445 0 2.8945-0.59766 3.75-1.7969 0.86328-1.1953 1.2969-2.9297 1.2969-5.2031 0-2.2812-0.43359-4.0195-1.2969-5.2188-0.85547-1.1953-2.1055-1.7969-3.75-1.7969-1.625 0-2.8711 0.60156-3.7344 1.7969-0.85547 1.1992-1.2812 2.9375-1.2812 5.2188 0 2.2734 0.42578 4.0078 1.2812 5.2031 0.86328 1.1992 2.1094 1.7969 3.7344 1.7969z"/>
  </symbol>
  <symbol id="i" overflow="visible">
   <path d="m16.406-4.9375c1.6328 0 2.8828-0.59766 3.75-1.7969 0.86328-1.1953 1.2969-2.9297 1.2969-5.2031 0-2.2812-0.43359-4.0195-1.2969-5.2188-0.86719-1.1953-2.1172-1.7969-3.75-1.7969-1.6367 0-2.8906 0.60547-3.7656 1.8125-0.875 1.1992-1.3125 2.9336-1.3125 5.2031 0 2.2617 0.4375 3.9961 1.3125 5.2031 0.875 1.1992 2.1289 1.7969 3.7656 1.7969zm-5.0781-15.484c1.0508-1.3945 2.2188-2.4219 3.5-3.0781 1.2812-0.66406 2.7539-1 4.4219-1 2.9453 0 5.3672 1.1719 7.2656 3.5156 1.8945 2.3438 2.8438 5.3594 2.8438 9.0469s-0.94922 6.7031-2.8438 9.0469c-1.8984 2.3438-4.3203 3.5156-7.2656 3.5156-1.668 0-3.1406-0.33594-4.4219-1s-2.4492-1.6914-3.5-3.0781v3.4531h-7.6562v-33.234h7.6562z"/>
  </symbol>
  <symbol id="h" overflow="visible">
   <path d="m0.53125-23.922h7.6562l6.4219 16.234 5.4688-16.234h7.6562l-10.062 26.188c-1.0117 2.6641-2.1953 4.5234-3.5469 5.5781-1.3438 1.0625-3.1211 1.5938-5.3281 1.5938h-4.4219v-5.0156h2.3906c1.3008 0 2.2422-0.21094 2.8281-0.625 0.59375-0.40625 1.0547-1.1484 1.3906-2.2188l0.20312-0.65625z"/>
  </symbol>
  <symbol id="g" overflow="visible">
   <path d="m4.0156-31.891h9.1875l11.594 21.875v-21.875h7.7969v31.891h-9.1875l-11.594-21.875v21.875h-7.7969z"/>
  </symbol>
  <symbol id="f" overflow="visible">
   <path d="m3.6719-23.922h7.6562v23.922h-7.6562zm0-9.3125h7.6562v6.2344h-7.6562z"/>
  </symbol>
  <symbol id="e" overflow="visible">
   <path d="m27.734-14.562v14.562h-7.7031v-11.109c0-2.0938-0.046875-3.5312-0.14062-4.3125-0.085937-0.78125-0.24219-1.3594-0.46875-1.7344-0.30469-0.5-0.71094-0.88281-1.2188-1.1562-0.51172-0.28125-1.0938-0.42188-1.75-0.42188-1.5938 0-2.8516 0.61719-3.7656 1.8438-0.90625 1.2305-1.3594 2.9375-1.3594 5.125v11.766h-7.6562v-33.234h7.6562v12.812c1.1445-1.3945 2.3633-2.4219 3.6562-3.0781 1.3008-0.66406 2.7383-1 4.3125-1 2.7578 0 4.8516 0.85156 6.2812 2.5469 1.4375 1.6875 2.1562 4.1523 2.1562 7.3906z"/>
  </symbol>
  <symbol id="d" overflow="visible">
   <path d="m27.734-14.562v14.562h-7.7031v-11.156c0-2.0625-0.046875-3.4844-0.14062-4.2656-0.085937-0.78125-0.24219-1.3594-0.46875-1.7344-0.30469-0.5-0.71094-0.88281-1.2188-1.1562-0.51172-0.28125-1.0938-0.42188-1.75-0.42188-1.5938 0-2.8516 0.61719-3.7656 1.8438-0.90625 1.2305-1.3594 2.9375-1.3594 5.125v11.766h-7.6562v-23.922h7.6562v3.5c1.1445-1.3945 2.3633-2.4219 3.6562-3.0781 1.3008-0.66406 2.7383-1 4.3125-1 2.7578 0 4.8516 0.85156 6.2812 2.5469 1.4375 1.6875 2.1562 4.1523 2.1562 7.3906z"/>
  </symbol>
  <symbol id="l" overflow="visible">
   <path d="m0.21875-31.891h29.391v6.2188h-10.578v25.672h-8.2188v-25.672h-10.594z"/>
  </symbol>
 </defs>
 <g>
  <path d="m428.75 542.5h17.5c0-34.258-18.438-66.203-48.117-83.371l-8.7656 15.145c24.289 14.055 39.383 40.199 39.383 68.227z"/>
  <path d="m253.75 542.5h17.5c0-28.027 15.094-54.172 39.383-68.215l-8.7656-15.145c-29.68 17.156-48.117 49.102-48.117 83.359z"/>
  <path d="m391.33 399.57c63.242 18.242 107.42 77.023 107.42 142.93h17.5c0-73.656-49.375-139.35-120.08-159.75z"/>
  <path d="m183.75 542.5h17.5c0-65.906 44.18-124.69 107.42-142.93l-4.8555-16.816c-70.691 20.395-120.07 86.09-120.07 159.75z"/>
  <path d="m323.75 298.93v182.32c0 1.1094 0.21094 2.2148 0.62109 3.2539l17.5 43.75c1.3398 3.3164 4.5508 5.4961 8.1289 5.4961s6.7891-2.1797 8.1289-5.4961l17.5-43.75c0.41016-1.0391 0.62109-2.1445 0.62109-3.2539v-182.32c122.8 13.145 218.75 117.35 218.75 243.57h17.5c0-110.77-69.004-205.67-166.25-244.14v-53.359c0-4.8281-3.9102-8.75-8.75-8.75h-35v-140h8.75c3.0352 0 5.8438-1.5742 7.4453-4.1484 1.6016-2.582 1.7422-5.8008 0.38672-8.5156l-17.5-35c-1.4883-2.9648-4.5156-4.8359-7.832-4.8359h-35v-26.25h-17.5v26.25h-35c-3.3164 0-6.3438 1.8711-7.832 4.8398l-17.5 35c-1.3555 2.7109-1.2148 5.9336 0.38672 8.5156 1.6016 2.5703 4.4102 4.1445 7.4453 4.1445h8.75v140h-35c-4.8398 0-8.75 3.9219-8.75 8.75v53.359c-97.246 38.473-166.25 133.38-166.25 244.14h17.5c0-126.23 95.953-230.43 218.75-243.57zm-8.75-178.47 17.988 10.797-17.988 10.797zm70 135.34-17.988-10.797 17.988-10.797zm-35-21-26.738-16.047 26.738-16.047 26.738 16.047zm35-31.5-17.988-10.797 17.988-10.797zm0-61.25-17.988-10.797 17.988-10.797zm-0.96094 19.828-34.039 20.422-34.039-20.422 34.039-20.422zm-69.039 19.828 17.988 10.797-17.988 10.797zm17.988 63.297-17.988 10.797v-21.594zm-17.988 31.203 35-21 35 21v6.1953c-11.461-1.5312-23.125-2.3984-35-2.3984s-23.539 0.86719-35 2.4062zm26.25 157.95 17.5 8.75v15.434l-17.5-8.75zm0-19.562v-15.434l17.5 8.75v15.434zm0-35v-15.434l17.5 8.75v15.434zm17.5-26.25-17.5-8.75v-15.434l17.5 8.75zm-8.75 148.1-8.75-21.875v-10.402l17.5 8.75v1.6523zm8.75-183.1-17.5-8.75v-11.863c2.9141-0.10938 5.8203-0.23047 8.75-0.23047s5.8359 0.12109 8.75 0.21875zm70-64.594v38.332c-8.5742-2.7031-17.324-4.9883-26.25-6.7969v-31.535zm-117.09-192.5h76.684l8.75 17.5h-94.184zm73.344 35v3.7969l-35 21-35-21v-3.7969zm-113.75 157.5h26.25v31.535c-8.9258 1.8203-17.676 4.1055-26.25 6.7969z"/>
  <path d="m280 341.25c0 4.8281 3.9219 8.75 8.75 8.75s8.75-3.9219 8.75-8.75-3.9219-8.75-8.75-8.75-8.75 3.9219-8.75 8.75z"/>
  <path d="m236.25 376.25c0 4.8281 3.9219 8.75 8.75 8.75s8.75-3.9219 8.75-8.75-3.9219-8.75-8.75-8.75-8.75 3.9219-8.75 8.75z"/>
  <path d="m183.75 411.25c4.8281 0 8.75-3.9219 8.75-8.75s-3.9219-8.75-8.75-8.75-8.75 3.9219-8.75 8.75 3.9219 8.75 8.75 8.75z"/>
  <path d="m183.75 455c4.8281 0 8.75-3.9219 8.75-8.75s-3.9219-8.75-8.75-8.75-8.75 3.9219-8.75 8.75 3.9219 8.75 8.75 8.75z"/>
  <path d="m140 463.75c-4.8281 0-8.75 3.9219-8.75 8.75s3.9219 8.75 8.75 8.75 8.75-3.9219 8.75-8.75-3.9219-8.75-8.75-8.75z"/>
  <path d="m166.25 490c-4.8281 0-8.75 3.9219-8.75 8.75s3.9219 8.75 8.75 8.75 8.75-3.9219 8.75-8.75-3.9219-8.75-8.75-8.75z"/>
  <path d="m131.25 533.75c4.8281 0 8.75-3.9219 8.75-8.75s-3.9219-8.75-8.75-8.75-8.75 3.9219-8.75 8.75 3.9219 8.75 8.75 8.75z"/>
  <path d="m411.25 341.25c0 4.8281 3.9219 8.75 8.75 8.75s8.75-3.9219 8.75-8.75-3.9219-8.75-8.75-8.75-8.75 3.9219-8.75 8.75z"/>
  <path d="m472.5 350c-4.8281 0-8.75 3.9219-8.75 8.75s3.9219 8.75 8.75 8.75 8.75-3.9219 8.75-8.75-3.9219-8.75-8.75-8.75z"/>
  <path d="m507.5 411.25c4.8281 0 8.75-3.9219 8.75-8.75s-3.9219-8.75-8.75-8.75-8.75 3.9219-8.75 8.75 3.9219 8.75 8.75 8.75z"/>
  <path d="m560 472.5c-4.8281 0-8.75 3.9219-8.75 8.75s3.9219 8.75 8.75 8.75 8.75-3.9219 8.75-8.75-3.9219-8.75-8.75-8.75z"/>
  <path d="m516.25 455c4.8281 0 8.75-3.9219 8.75-8.75s-3.9219-8.75-8.75-8.75-8.75 3.9219-8.75 8.75 3.9219 8.75 8.75 8.75z"/>
  <path d="m551.25 542.5c4.8281 0 8.75-3.9219 8.75-8.75s-3.9219-8.75-8.75-8.75-8.75 3.9219-8.75 8.75 3.9219 8.75 8.75 8.75z"/>
  <path d="m105 17.5h17.5v17.5h-17.5z"/>
  <path d="m105 52.5h17.5v17.5h-17.5z"/>
  <path d="m122.5 35h17.5v17.5h-17.5z"/>
  <path d="m87.5 35h17.5v17.5h-17.5z"/>
  <path d="m577.5 17.5h17.5v17.5h-17.5z"/>
  <path d="m577.5 52.5h17.5v17.5h-17.5z"/>
  <path d="m595 35h17.5v17.5h-17.5z"/>
  <path d="m560 35h17.5v17.5h-17.5z"/>
  <use x="70" y="691.25" xlink:href="#m"/>
  <use x="102.109375" y="691.25" xlink:href="#k"/>
  <use x="123.683594" y="691.25" xlink:href="#c"/>
  <use x="153.355469" y="691.25" xlink:href="#a"/>
  <use x="182.878906" y="691.25" xlink:href="#b"/>
  <use x="203.792969" y="691.25" xlink:href="#c"/>
  <use x="233.464844" y="691.25" xlink:href="#j"/>
  <use x="280.011719" y="691.25" xlink:href="#i"/>
  <use x="311.328125" y="691.25" xlink:href="#h"/>
  <use x="355.078125" y="691.25" xlink:href="#g"/>
  <use x="391.695312" y="691.25" xlink:href="#f"/>
  <use x="406.691406" y="691.25" xlink:href="#b"/>
  <use x="427.605469" y="691.25" xlink:href="#e"/>
  <use x="458.75" y="691.25" xlink:href="#f"/>
  <use x="473.746094" y="691.25" xlink:href="#d"/>
  <use x="504.894531" y="691.25" xlink:href="#a"/>
  <use x="534.417969" y="691.25" xlink:href="#d"/>
  <use x="580.792969" y="691.25" xlink:href="#l"/>
  <use x="610.636719" y="691.25" xlink:href="#a"/>
  <use x="640.160156" y="691.25" xlink:href="#b"/>
  <use x="661.074219" y="691.25" xlink:href="#a"/>
  <use x="690.597656" y="691.25" xlink:href="#e"/>
 </g>
</svg>
